# xmcd
#
# Track frame offsets:
#	150
#	14475
#	33630
#	50230
#	67375
#	83987
#	97210
#	116112
#	132905
#	149265
#	162977
#	175202
#	190684
#	203367
#	219062
#	230940
#	247765
#	262850
#	276792
#
# Disc length: 3936 seconds
#
# Revision: 2
# Processed by: cddbd v1.5.1PL2 Copyright (c) Steve Scherf et al.
# Submitted via: audiograbber 1.83.01
#
DISCID=1c0f5e13
DTITLE=Clint Black - THM0022
DYEAR=1900
DGENRE=Karaoke
TTITLE0=Black, Clint and Sarner, Steve - Been There
TTITLE1=Black, Clint and Hartman, Lisa - When I Said I Do
TTITLE2=Black, Clint - You Don't Need Me Now
TTITLE3=Black, Clint - Burn One Down
TTITLE4=Black, Clint - Desperado
TTITLE5=Black, Clint - Killin' Time
TTITLE6=Black, Clint - Loving Blind
TTITLE7=Black, Clint - No Time To Kill
TTITLE8=Black, Clint - Nobody's Home
TTITLE9=Black, Clint - Nothing's New
TTITLE10=Black, Clint - One Emotion
TTITLE11=Black, Clint - Put Yourself In My Shoes
TTITLE12=Black, Clint - State Of Mind
TTITLE13=Black, Clint - The Hard Way
TTITLE14=Black, Clint - Walkin' Away
TTITLE15=Black, Clint - We Tell Ourselves
TTITLE16=Black, Clint - When My Ship Comes In
TTITLE17=Black, Clint - Where Are you Now
TTITLE18=Black, Clint and Wynonna - A Bad Goodbye
EXTD=
EXTT0=
EXTT1=
EXTT2=
EXTT3=
EXTT4=
EXTT5=
EXTT6=
EXTT7=
EXTT8=
EXTT9=
EXTT10=
EXTT11=
EXTT12=
EXTT13=
EXTT14=
EXTT15=
EXTT16=
EXTT17=
EXTT18=
PLAYORDER=
